{"asset":{"version":"2.0","generator":"VECTARY"},"nodes":[{"translation":[0.05000999999999999,0.015654118348051648,9.769962616701377e-18],"scale":[0.0010000000000000007,0.0010000000000000007,0.0010000000000000005],"rotation":[-0.5000000000000001,0.49999999999999994,0.5000000000000002,-0.49999999999999983],"name":"back","mesh":0},{"translation":[-0.05000999999999999,0.015654118348051648,9.769962616701377e-18],"scale":[0.0010000000000000007,0.0010000000000000005,0.0010000000000000005],"rotation":[-0.4999999999999999,0.5000000000000002,-0.5,0.5000000000000001],"name":"front","mesh":1},{"translation":[0,0.015654118348051613,0.050010000000000034],"scale":[0.0010000000000000005,0.0010000000000000002,0.0010000000000000002],"rotation":[-0.7071067811865477,0.7071067811865475,1.6653345369377348e-16,0],"name":"left","mesh":2},{"translation":[0,0.015654118348051683,-0.050010000000000006],"scale":[0.0010000000000000002,0.001,0.0010000000000000002],"rotation":[2.7755575615628914e-16,2.7755575615628914e-16,-0.7071067811865477,0.7071067811865475],"name":"right","mesh":3},{"translation":[0,0,0],"scale":[0.0010000000000000002,0.0010000000000000002,0.00163322445170322],"rotation":[-0.5,0.5000000000000001,0.5000000000000001,0.5],"name":"base","mesh":4}],"materials":[{"pbrMetallicRoughness":{"baseColorFactor":[0.8670237934377415,0.8670237934377415,0.8670237934377415,0],"metallicFactor":0,"roughnessFactor":0.2},"name":"Pluto","emissiveFactor":[0,0,0],"extensions":{},"alphaMode":"BLEND","doubleSided":true},{"pbrMetallicRoughness":{"baseColorFactor":[1,1,1,1],"baseColorTexture":{"index":0,"extensions":{"KHR_texture_transform":{"offset":[0,0],"scale":[10,10],"rotation":0}},"texCoord":0},"metallicFactor":0.04,"roughnessFactor":0.35},"name":"Abstract","normalTexture":{"index":1,"scale":0.64,"extensions":{"KHR_texture_transform":{"offset":[0,0],"scale":[10,10],"rotation":0}},"texCoord":0},"emissiveFactor":[0.15,0.15,0.15],"extensions":{"KHR_materials_clearcoat":{"clearcoatFactor":0.22,"clearcoatRoughnessFactor":0.24}},"alphaMode":"OPAQUE","doubleSided":true}],"meshes":[{"primitives":[{"mode":4,"attributes":{"POSITION":1,"NORMAL":2,"TEXCOORD_0":3},"material":0,"indices":0}]},{"primitives":[{"mode":4,"attributes":{"POSITION":5,"NORMAL":6,"TEXCOORD_0":7},"material":0,"indices":4}]},{"primitives":[{"mode":4,"attributes":{"POSITION":9,"NORMAL":10,"TEXCOORD_0":11},"material":0,"indices":8}]},{"primitives":[{"mode":4,"attributes":{"POSITION":13,"NORMAL":14,"TEXCOORD_0":15},"material":0,"indices":12}]},{"primitives":[{"mode":4,"attributes":{"POSITION":17,"NORMAL":18,"TEXCOORD_0":19},"material":1,"indices":16}]}],"accessors":[{"bufferView":0,"byteOffset":0,"componentType":5125,"count":4998,"type":"SCALAR"},{"bufferView":1,"byteOffset":0,"componentType":5126,"count":868,"max":[15,50,0],"min":[-15,-50,0],"type":"VEC3"},{"bufferView":2,"byteOffset":0,"componentType":5126,"count":868,"type":"VEC3"},{"bufferView":3,"byteOffset":0,"componentType":5126,"count":868,"type":"VEC2"},{"bufferView":4,"byteOffset":0,"componentType":5125,"count":4998,"type":"SCALAR"},{"bufferView":5,"byteOffset":0,"componentType":5126,"count":868,"max":[15,50,0],"min":[-15,-50,0],"type":"VEC3"},{"bufferView":6,"byteOffset":0,"componentType":5126,"count":868,"type":"VEC3"},{"bufferView":7,"byteOffset":0,"componentType":5126,"count":868,"type":"VEC2"},{"bufferView":8,"byteOffset":0,"componentType":5125,"count":4998,"type":"SCALAR"},{"bufferView":9,"byteOffset":0,"componentType":5126,"count":868,"max":[15,50,0],"min":[-15,-50,0],"type":"VEC3"},{"bufferView":10,"byteOffset":0,"componentType":5126,"count":868,"type":"VEC3"},{"bufferView":11,"byteOffset":0,"componentType":5126,"count":868,"type":"VEC2"},{"bufferView":12,"byteOffset":0,"componentType":5125,"count":4998,"type":"SCALAR"},{"bufferView":13,"byteOffset":0,"componentType":5126,"count":868,"max":[15,50,0],"min":[-15,-50,0],"type":"VEC3"},{"bufferView":14,"byteOffset":0,"componentType":5126,"count":868,"type":"VEC3"},{"bufferView":15,"byteOffset":0,"componentType":5126,"count":868,"type":"VEC2"},{"bufferView":16,"byteOffset":0,"componentType":5125,"count":84,"type":"SCALAR"},{"bufferView":17,"byteOffset":0,"componentType":5126,"count":52,"max":[50,50,30.001710891723633],"min":[-50,-50,0],"type":"VEC3"},{"bufferView":18,"byteOffset":0,"componentType":5126,"count":52,"type":"VEC3"},{"bufferView":19,"byteOffset":0,"componentType":5126,"count":52,"type":"VEC2"}],"bufferViews":[{"buffer":0,"byteOffset":0,"byteLength":19992,"target":34963},{"buffer":0,"byteOffset":19992,"byteLength":10416,"target":34962},{"buffer":0,"byteOffset":30408,"byteLength":10416,"target":34962},{"buffer":0,"byteOffset":40824,"byteLength":6944,"target":34962},{"buffer":0,"byteOffset":47768,"byteLength":19992,"target":34963},{"buffer":0,"byteOffset":67760,"byteLength":10416,"target":34962},{"buffer":0,"byteOffset":78176,"byteLength":10416,"target":34962},{"buffer":0,"byteOffset":88592,"byteLength":6944,"target":34962},{"buffer":0,"byteOffset":95536,"byteLength":19992,"target":34963},{"buffer":0,"byteOffset":115528,"byteLength":10416,"target":34962},{"buffer":0,"byteOffset":125944,"byteLength":10416,"target":34962},{"buffer":0,"byteOffset":136360,"byteLength":6944,"target":34962},{"buffer":0,"byteOffset":143304,"byteLength":19992,"target":34963},{"buffer":0,"byteOffset":163296,"byteLength":10416,"target":34962},{"buffer":0,"byteOffset":173712,"byteLength":10416,"target":34962},{"buffer":0,"byteOffset":184128,"byteLength":6944,"target":34962},{"buffer":0,"byteOffset":191072,"byteLength":336,"target":34963},{"buffer":0,"byteOffset":191408,"byteLength":624,"target":34962},{"buffer":0,"byteOffset":192032,"byteLength":624,"target":34962},{"buffer":0,"byteOffset":192656,"byteLength":416,"target":34962}],"textures":[{"sampler":0,"source":0},{"sampler":0,"source":1}],"images":[{"uri":"metal-background-and-texture.jpg","mimeType":"image/jpeg"},{"uri":"metal-background-and-texture_1.jpg","mimeType":"image/jpeg"}],"samplers":[{"wrapS":10497,"wrapT":10497}],"scene":0,"scenes":[{"nodes":[0,1,2,3,4],"name":"steel-building"}],"extensionsUsed":["KHR_texture_transform","KHR_materials_clearcoat"],"buffers":[{"byteLength":193072,"uri":"steel-building.bin"}]}