{"asset":{"version":"2.0","generator":"VECTARY"},"nodes":[{"translation":[0,0,-0.00021653747558593754],"scale":[0.0010000000000000002,0.0010000000000000002,0.001],"rotation":[-0.5,0.5000000000000001,0.5000000000000001,0.5],"name":"base","mesh":0}],"materials":[{"pbrMetallicRoughness":{"baseColorFactor":[1,1,1,1],"baseColorTexture":{"index":0,"extensions":{"KHR_texture_transform":{"offset":[0,0],"scale":[4,0],"rotation":0}},"texCoord":0},"metallicFactor":0,"roughnessFactor":0.2},"name":"Sierra 1","emissiveFactor":[0,0,0],"extensions":{},"alphaMode":"OPAQUE","doubleSided":false}],"textures":[{"sampler":0,"source":0}],"images":[{"uri":"metal-background-and-texture.jpg","mimeType":"image/jpeg"}],"samplers":[{"wrapS":10497,"wrapT":10497}],"meshes":[{"primitives":[{"mode":4,"attributes":{"POSITION":1,"NORMAL":2,"TEXCOORD_0":3},"material":0,"indices":0}]}],"accessors":[{"bufferView":0,"byteOffset":0,"componentType":5125,"count":2448,"type":"SCALAR"},{"bufferView":1,"byteOffset":0,"componentType":5126,"count":876,"max":[55,24.52196502685547,41.667572021484375],"min":[-55,-24.52196502685547,0],"type":"VEC3"},{"bufferView":2,"byteOffset":0,"componentType":5126,"count":876,"type":"VEC3"},{"bufferView":3,"byteOffset":0,"componentType":5126,"count":876,"type":"VEC2"}],"bufferViews":[{"buffer":0,"byteOffset":0,"byteLength":9792,"target":34963},{"buffer":0,"byteOffset":9792,"byteLength":10512,"target":34962},{"buffer":0,"byteOffset":20304,"byteLength":10512,"target":34962},{"buffer":0,"byteOffset":30816,"byteLength":7008,"target":34962}],"scene":0,"scenes":[{"nodes":[0],"name":"metal-field-shelter"}],"extensionsUsed":["KHR_texture_transform"],"buffers":[{"byteLength":37824,"uri":"metal-field-shelter.bin"}]}