{"asset":{"version":"2.0","generator":"VECTARY"},"nodes":[{"translation":[0.05000000000000001,0,0],"scale":[0.0010000000000000005,0.0007700000000000001,0.0010000000000000005],"rotation":[-0.5,-0.5000000000000001,0.5000000000000001,0.5],"name":"base","mesh":0}],"materials":[{"pbrMetallicRoughness":{"baseColorFactor":[0.8670237934377415,0.8670237934377415,0.8670237934377415,1],"metallicFactor":0,"roughnessFactor":0.2},"name":"May Mist","emissiveFactor":[0,0,0],"extensions":{},"alphaMode":"OPAQUE","doubleSided":false}],"meshes":[{"primitives":[{"mode":4,"attributes":{"POSITION":1,"NORMAL":2,"TEXCOORD_0":3},"material":0,"indices":0}]}],"accessors":[{"bufferView":0,"byteOffset":0,"componentType":5125,"count":828,"type":"SCALAR"},{"bufferView":1,"byteOffset":0,"componentType":5126,"count":292,"max":[50,50,100],"min":[-0.12191878259181976,-50,0],"type":"VEC3"},{"bufferView":2,"byteOffset":0,"componentType":5126,"count":292,"type":"VEC3"},{"bufferView":3,"byteOffset":0,"componentType":5126,"count":292,"type":"VEC2"}],"bufferViews":[{"buffer":0,"byteOffset":0,"byteLength":3312,"target":34963},{"buffer":0,"byteOffset":3312,"byteLength":3504,"target":34962},{"buffer":0,"byteOffset":6816,"byteLength":3504,"target":34962},{"buffer":0,"byteOffset":10320,"byteLength":2336,"target":34962}],"scene":0,"scenes":[{"nodes":[0],"name":"open-livestock"}],"extensionsUsed":["KHR_texture_transform"],"buffers":[{"byteLength":12656,"uri":"open-livestock.bin"}]}