{"asset":{"version":"2.0","generator":"VECTARY"},"nodes":[{"translation":[0,0,0],"scale":[0.0013000000000000004,0.0013000000000000004,0.0013000000000000002],"rotation":[-0.5,0.5000000000000001,0.5000000000000001,0.5],"name":"horse","children":[1,2,3,4]},{"translation":[0,0,0],"scale":[0.1,0.1,0.1],"rotation":[0.7071067811865477,0,0,0.7071067811865474],"name":"body","mesh":0},{"translation":[0,0,0],"scale":[0.1,0.1,0.1],"rotation":[0.7071067811865477,0,0,0.7071067811865474],"name":"eyes","mesh":1},{"translation":[0,0,0],"scale":[0.1,0.1,0.1],"rotation":[0.7071067811865477,0,0,0.7071067811865474],"name":"foot","mesh":2},{"translation":[0,0,0],"scale":[0.1,0.1,0.1],"rotation":[0.7071067811865477,0,0,0.7071067811865474],"name":"tail","mesh":3}],"materials":[{"pbrMetallicRoughness":{"baseColorFactor":[1,1,1,1],"baseColorTexture":{"index":0,"extensions":{"KHR_texture_transform":{"offset":[0,0],"scale":[1,1],"rotation":0}},"texCoord":0},"metallicFactor":0,"roughnessFactor":0.7},"name":"Leather","emissiveFactor":[0,0,0],"extensions":{},"alphaMode":"OPAQUE","doubleSided":false},{"pbrMetallicRoughness":{"baseColorFactor":[0.02202106715795907,0.005519467386729204,0.0029333936148433397,1],"metallicFactor":0,"roughnessFactor":0.7},"name":"Eye","emissiveFactor":[0,0,0],"extensions":{},"alphaMode":"OPAQUE","doubleSided":false},{"pbrMetallicRoughness":{"baseColorFactor":[0.03701779622775698,0.03701779622775698,0.03701779622775698,1],"metallicFactor":0,"roughnessFactor":0.7},"name":"Hooves","emissiveFactor":[0,0,0],"extensions":{},"alphaMode":"OPAQUE","doubleSided":false},{"pbrMetallicRoughness":{"baseColorFactor":[0.1835096466164822,0.054607291283987926,0.005028684427993844,1],"metallicFactor":0,"roughnessFactor":0.7},"name":"Fur","emissiveFactor":[0,0,0],"extensions":{},"alphaMode":"OPAQUE","doubleSided":false}],"textures":[{"sampler":0,"source":0}],"images":[{"uri":"31.jpg","mimeType":"image/jpeg"}],"samplers":[{"wrapS":10497,"wrapT":10497}],"meshes":[{"primitives":[{"mode":4,"attributes":{"POSITION":0,"NORMAL":1,"TEXCOORD_0":2},"material":0}]},{"primitives":[{"mode":4,"attributes":{"POSITION":3,"NORMAL":4,"TEXCOORD_0":5},"material":1}]},{"primitives":[{"mode":4,"attributes":{"POSITION":6,"NORMAL":7,"TEXCOORD_0":8},"material":2}]},{"primitives":[{"mode":4,"attributes":{"POSITION":9,"NORMAL":10,"TEXCOORD_0":11},"material":3}]}],"accessors":[{"bufferView":0,"byteOffset":0,"componentType":5126,"count":46461,"max":[1220.0850830078125,1619.048828125,360.47601318359375],"min":[-962.397705078125,74.72850036621094,-345.88690185546875],"type":"VEC3"},{"bufferView":1,"byteOffset":0,"componentType":5126,"count":46461,"type":"VEC3"},{"bufferView":2,"byteOffset":0,"componentType":5126,"count":46461,"type":"VEC2"},{"bufferView":3,"byteOffset":0,"componentType":5126,"count":798,"max":[1050.6260986328125,698.2631225585938,122.02439880371094],"min":[976.085693359375,632.89599609375,-101.19080352783203],"type":"VEC3"},{"bufferView":4,"byteOffset":0,"componentType":5126,"count":798,"type":"VEC3"},{"bufferView":5,"byteOffset":0,"componentType":5126,"count":798,"type":"VEC2"},{"bufferView":6,"byteOffset":0,"componentType":5126,"count":2568,"max":[646.2335815429688,142.51890563964844,257.5526123046875],"min":[-958.3875732421875,4.111499786376953,-355.5014953613281],"type":"VEC3"},{"bufferView":7,"byteOffset":0,"componentType":5126,"count":2568,"type":"VEC3"},{"bufferView":8,"byteOffset":0,"componentType":5126,"count":2568,"type":"VEC2"},{"bufferView":9,"byteOffset":0,"componentType":5126,"count":5262,"max":[-908.6021118164062,1470.0687255859375,171.2364959716797],"min":[-1219.760986328125,440.8616943359375,-154.78399658203125],"type":"VEC3"},{"bufferView":10,"byteOffset":0,"componentType":5126,"count":5262,"type":"VEC3"},{"bufferView":11,"byteOffset":0,"componentType":5126,"count":5262,"type":"VEC2"}],"bufferViews":[{"buffer":0,"byteOffset":0,"byteLength":557532,"target":34962},{"buffer":0,"byteOffset":557532,"byteLength":557532,"target":34962},{"buffer":0,"byteOffset":1115064,"byteLength":371688,"target":34962},{"buffer":0,"byteOffset":1486752,"byteLength":9576,"target":34962},{"buffer":0,"byteOffset":1496328,"byteLength":9576,"target":34962},{"buffer":0,"byteOffset":1505904,"byteLength":6384,"target":34962},{"buffer":0,"byteOffset":1512288,"byteLength":30816,"target":34962},{"buffer":0,"byteOffset":1543104,"byteLength":30816,"target":34962},{"buffer":0,"byteOffset":1573920,"byteLength":20544,"target":34962},{"buffer":0,"byteOffset":1594464,"byteLength":63144,"target":34962},{"buffer":0,"byteOffset":1657608,"byteLength":63144,"target":34962},{"buffer":0,"byteOffset":1720752,"byteLength":42096,"target":34962}],"scene":0,"scenes":[{"nodes":[0],"name":"horse"}],"extensionsUsed":["KHR_texture_transform"],"buffers":[{"byteLength":1762848,"uri":"horse.bin"}]}